<svg id="Layer_1" data-name="Layer 1" xmlns="http://www.w3.org/2000/svg" viewBox="0 0 128.44 128.97"><defs><style>.cls-1{fill:none;stroke:#00abff;stroke-miterlimit:10;stroke-width:3.5px;}.cls-2{fill:#00abff;}</style></defs><circle class="cls-1" cx="64.52" cy="64.77" r="60.53"/><path class="cls-2" d="M105.81,42.1h-1.52V37.73a1.32,1.32,0,0,0-.76-1.2,46.3,46.3,0,0,0-39-.26,46.3,46.3,0,0,0-39,.26,1.33,1.33,0,0,0-.77,1.2V42.1H23.23A4.19,4.19,0,0,0,19,46.28v47a4.2,4.2,0,0,0,4.19,4.19h82.58A4.19,4.19,0,0,0,110,93.26v-47A4.18,4.18,0,0,0,105.81,42.1Zm-40,19.84h0V38.59a43.65,43.65,0,0,1,35.77,0v4.83h0v43.5a46.35,46.35,0,0,0-35.77,0ZM57.31,36.45a44,44,0,0,1,5.87,2.14V59.45L61,58a1.35,1.35,0,0,0-1.49,0l-2.19,1.47Zm-29.9,7h0V38.59a43.63,43.63,0,0,1,27.23-2.81v5.84A46.3,46.3,0,0,0,40.16,41,1.34,1.34,0,0,0,39,42.43a1.35,1.35,0,0,0,1.48,1.18,43.58,43.58,0,0,1,14.18.74V53a45.31,45.31,0,0,0-8.61-1,1.33,1.33,0,0,0-1.36,1.31A1.34,1.34,0,0,0,46,54.74a43.46,43.46,0,0,1,8.65,1v3a46.39,46.39,0,0,0-23.27,1.18,1.33,1.33,0,0,0,.4,2.61,1.39,1.39,0,0,0,.4-.06,43.71,43.71,0,0,1,22.47-1v.5a1.33,1.33,0,0,0,2.07,1.11l3.53-2.35,2.94,1.95V86.94a46.35,46.35,0,0,0-35.77,0V43.43Zm31.5,51.35H23.23a1.52,1.52,0,0,1-1.52-1.52v-47a1.52,1.52,0,0,1,1.52-1.52h1.51V90.42a1.34,1.34,0,0,0,1.33,1.33H58.91Zm-29.67-5.7a43.65,43.65,0,0,1,32.11,0Zm38.21,5.7H61.58v-3h5.87Zm32.34-5.7H67.68A43.65,43.65,0,0,1,99.79,89.08Zm7.53,4.18a1.52,1.52,0,0,1-1.51,1.52H70.12v-3H103a1.33,1.33,0,0,0,1.33-1.33V44.76h1.52a1.52,1.52,0,0,1,1.51,1.52Z"/><path class="cls-2" d="M74.21,75.85A44.44,44.44,0,0,0,69.81,77a1.33,1.33,0,0,0,.4,2.6,1.39,1.39,0,0,0,.4-.06c1.36-.42,2.75-.79,4.15-1.08a1.33,1.33,0,0,0-.55-2.61Z"/><path class="cls-2" d="M97.26,79.6a1.33,1.33,0,0,0,.4-2.6,46.13,46.13,0,0,0-17.59-2,1.34,1.34,0,0,0,.21,2.67,43.47,43.47,0,0,1,16.58,1.87A1.44,1.44,0,0,0,97.26,79.6Z"/><path class="cls-2" d="M70.21,73.89a1.39,1.39,0,0,0,.4-.06,43.55,43.55,0,0,1,26.25,0,1.34,1.34,0,1,0,.8-2.55,46.27,46.27,0,0,0-27.85,0A1.34,1.34,0,0,0,68.94,73,1.33,1.33,0,0,0,70.21,73.89Z"/><path class="cls-2" d="M70.21,68.21a1.39,1.39,0,0,0,.4-.06,43.49,43.49,0,0,1,15.2-2,1.34,1.34,0,1,0,.13-2.67,46.14,46.14,0,0,0-16.13,2.09,1.33,1.33,0,0,0,.4,2.6Z"/><path class="cls-2" d="M97.66,65.61a45.14,45.14,0,0,0-5.86-1.44,1.33,1.33,0,1,0-.46,2.63,45.34,45.34,0,0,1,5.52,1.35,1.44,1.44,0,0,0,.4.06,1.33,1.33,0,0,0,.4-2.6Z"/><path class="cls-2" d="M70.21,62.5a1.39,1.39,0,0,0,.4-.06,43.55,43.55,0,0,1,26.25,0,1.34,1.34,0,1,0,.8-2.55,46.27,46.27,0,0,0-27.85,0,1.34,1.34,0,0,0-.87,1.68A1.33,1.33,0,0,0,70.21,62.5Z"/><path class="cls-2" d="M78.61,52.35a46.38,46.38,0,0,0-8.8,1.85,1.34,1.34,0,0,0,.4,2.61,1.39,1.39,0,0,0,.4-.06A43.69,43.69,0,0,1,78.9,55a1.33,1.33,0,0,0-.29-2.65Z"/><path class="cls-2" d="M84.43,54.74a43.32,43.32,0,0,1,12.43,2,1.44,1.44,0,0,0,.4.06,1.35,1.35,0,0,0,1.28-.94,1.33,1.33,0,0,0-.88-1.67,46.47,46.47,0,0,0-13.19-2.13,1.34,1.34,0,0,0,0,2.67Z"/><path class="cls-2" d="M88.57,49.32a1.33,1.33,0,1,0,.3-2.65,46.07,46.07,0,0,0-19.06,1.85,1.34,1.34,0,0,0,.4,2.61,1.39,1.39,0,0,0,.4-.06A43.52,43.52,0,0,1,88.57,49.32Z"/><path class="cls-2" d="M97.66,48.52c-1-.3-2-.58-2.93-.82a1.34,1.34,0,0,0-.63,2.6c.93.22,1.86.48,2.76.77a1.44,1.44,0,0,0,.4.06,1.35,1.35,0,0,0,1.28-.94A1.33,1.33,0,0,0,97.66,48.52Z"/><path class="cls-2" d="M70.21,45.42a1.12,1.12,0,0,0,.4-.07c.91-.28,1.84-.54,2.76-.76a1.34,1.34,0,1,0-.63-2.6c-1,.24-2,.51-2.93.82a1.34,1.34,0,0,0,.4,2.61Z"/><path class="cls-2" d="M78.9,43.61a43.5,43.5,0,0,1,18,1.74,1.16,1.16,0,0,0,.4.07,1.35,1.35,0,0,0,1.28-.94,1.33,1.33,0,0,0-.88-1.67,46,46,0,0,0-19-1.85,1.33,1.33,0,1,0,.29,2.65Z"/><path class="cls-2" d="M35.77,75.85A44.44,44.44,0,0,0,31.37,77a1.33,1.33,0,0,0,.4,2.6,1.39,1.39,0,0,0,.4-.06c1.36-.42,2.75-.79,4.14-1.08a1.33,1.33,0,1,0-.54-2.61Z"/><path class="cls-2" d="M58.82,79.6a1.33,1.33,0,0,0,.4-2.6,46.17,46.17,0,0,0-17.59-2,1.34,1.34,0,1,0,.21,2.67,43.5,43.5,0,0,1,16.58,1.87A1.39,1.39,0,0,0,58.82,79.6Z"/><path class="cls-2" d="M31.77,73.89a1.39,1.39,0,0,0,.4-.06,43.55,43.55,0,0,1,26.25,0,1.34,1.34,0,0,0,.8-2.55,46.27,46.27,0,0,0-27.85,0A1.34,1.34,0,0,0,30.5,73,1.32,1.32,0,0,0,31.77,73.89Z"/><path class="cls-2" d="M31.77,68.21a1.39,1.39,0,0,0,.4-.06,43.49,43.49,0,0,1,15.2-2,1.34,1.34,0,0,0,.12-2.67,46.11,46.11,0,0,0-16.12,2.09,1.33,1.33,0,0,0,.4,2.6Z"/><path class="cls-2" d="M52.89,66.8a45,45,0,0,1,5.53,1.35,1.39,1.39,0,0,0,.4.06,1.33,1.33,0,0,0,.4-2.6,45.54,45.54,0,0,0-5.86-1.44,1.35,1.35,0,0,0-1.55,1.09A1.33,1.33,0,0,0,52.89,66.8Z"/><path class="cls-2" d="M40.17,52.35a46.38,46.38,0,0,0-8.8,1.85,1.34,1.34,0,0,0,.4,2.61,1.39,1.39,0,0,0,.4-.06A43.36,43.36,0,0,1,40.46,55a1.34,1.34,0,0,0,1.18-1.47A1.32,1.32,0,0,0,40.17,52.35Z"/><path class="cls-2" d="M30.5,50.19a1.33,1.33,0,0,0,1.27.94,1.39,1.39,0,0,0,.4-.06,43.52,43.52,0,0,1,18-1.75,1.34,1.34,0,0,0,1.47-1.18,1.32,1.32,0,0,0-1.17-1.47,46.05,46.05,0,0,0-19.06,1.85A1.33,1.33,0,0,0,30.5,50.19Z"/><path class="cls-2" d="M31.77,45.42a1.12,1.12,0,0,0,.4-.07c.91-.28,1.84-.54,2.76-.76A1.34,1.34,0,0,0,34.3,42c-1,.24-2,.51-2.93.82a1.34,1.34,0,0,0,.4,2.61Z"/></svg>