<svg id="Layer_1" data-name="Layer 1" xmlns="http://www.w3.org/2000/svg" viewBox="0 0 128.44 128.97"><defs><style>.cls-1{fill:#00abff;fill-rule:evenodd;}.cls-2{fill:none;stroke:#00abff;stroke-miterlimit:10;stroke-width:3.5px;}</style></defs><path class="cls-1" d="M99.89,67.31l2.79,2.79a1.9,1.9,0,0,1,0,2.68L100.43,75a14.85,14.85,0,0,1,1.4,3.69h2.91a1.9,1.9,0,0,1,1.9,1.9v3.95a1.9,1.9,0,0,1-1.9,1.9h-3.16a14.53,14.53,0,0,1-1.64,3.61L102,92.14a1.9,1.9,0,0,1,0,2.68l-2.79,2.8a1.91,1.91,0,0,1-2.68,0l-2.25-2.25a15.36,15.36,0,0,1-3.73,1.39v2.92a1.89,1.89,0,0,1-1.89,1.89h-4a1.89,1.89,0,0,1-1.9-1.89V96.52a15.32,15.32,0,0,1-3.61-1.65l-2.07,2.06a1.9,1.9,0,0,1-2.67,0l-2.8-2.8a1.9,1.9,0,0,1,0-2.67l2.25-2.25a14.92,14.92,0,0,1-1.4-3.72H69.58a1.9,1.9,0,0,1-1.9-1.9v-4a1.9,1.9,0,0,1,1.9-1.9h3.16a15.17,15.17,0,0,1,1.65-3.62l-2.07-2.06a1.9,1.9,0,0,1,0-2.67l2.8-2.8a1.9,1.9,0,0,1,2.67,0l2.26,2.25a15.29,15.29,0,0,1,3.72-1.39V64.54a1.9,1.9,0,0,1,1.9-1.9h4a1.9,1.9,0,0,1,1.9,1.9V67.7a15,15,0,0,1,3.62,1.65l2.07-2a1.9,1.9,0,0,1,2.68,0ZM40.34,41.55c5.22,1.75,12.49,2.82,20.56,2.82s15.36-1,20.58-2.82c4.59-1.53,7.42-3.38,7.42-5.19s-2.83-3.66-7.42-5.19a67.47,67.47,0,0,0-20.56-2.83,67.7,67.7,0,0,0-20.58,2.83C30.64,34.41,30.37,38.21,40.34,41.55ZM60.05,84.41a70.66,70.66,0,0,1-20.95-3A25.18,25.18,0,0,1,33,78.5V90.42c.36,1.69,3.11,3.39,7.38,4.81a67.81,67.81,0,0,0,20.56,2.82c1.36,0,2.7,0,4-.09a10.2,10.2,0,0,0,1.26,1.6h0l2.18,2.17c-2.4.2-4.91.31-7.49.31a71.67,71.67,0,0,1-21.82-3C36.1,98,29,94.76,29,90.87V89.61Q29,63,29,36.37c0-3.72,3.88-6.87,10.12-9a71.83,71.83,0,0,1,21.84-3.05,71.54,71.54,0,0,1,21.82,3.05c5.63,1.87,9.43,4.68,10.06,8a1.89,1.89,0,0,1,.12.67V55.55A9.41,9.41,0,0,0,89.64,55h-.75v-.14h0V42.39a25.34,25.34,0,0,1-6.18,2.92,71,71,0,0,1-21.79,3.07,71.73,71.73,0,0,1-21.84-3.07A25.18,25.18,0,0,1,33,42.43V55.2c.36,1.69,3.11,3.39,7.37,4.81A67.54,67.54,0,0,0,60.9,62.84c2.58,0,5.09-.11,7.47-.32l-1,1-.42.4A9.47,9.47,0,0,0,65,66.71c-1.33.06-2.7.09-4.08.09a71.55,71.55,0,0,1-21.81-3A25.12,25.12,0,0,1,33,60.9V72.81c.36,1.69,3.11,3.39,7.36,4.81A66.23,66.23,0,0,0,60,80.44V83.6a5.7,5.7,0,0,0,0,.83ZM87.17,74.34a7.77,7.77,0,1,1-7.78,7.77,7.78,7.78,0,0,1,7.78-7.77Z"/><circle class="cls-2" cx="64.52" cy="64.77" r="60.53"/></svg>