<svg id="Layer_1" data-name="Layer 1" xmlns="http://www.w3.org/2000/svg" viewBox="0 0 128.44 128.97"><defs><style>.cls-1{fill:#00abff;stroke:#00abff;stroke-miterlimit:10;stroke-width:3.5px;}.cls-2{fill:#fff;}</style></defs><circle class="cls-1" cx="64.52" cy="64.77" r="60.53"/><path class="cls-2" d="M37.29,69H29.78a1,1,0,0,0-1,1V91.82a1,1,0,0,0,1,1h7.51a1,1,0,0,0,1-1V70A1,1,0,0,0,37.29,69Z"/><path class="cls-2" d="M99.25,69H91.73a1,1,0,0,0-1,1V91.82a1,1,0,0,0,1,1h7.52a1,1,0,0,0,1-1V70A1,1,0,0,0,99.25,69Z"/><path class="cls-2" d="M51.25,56.54H43.73a1,1,0,0,0-1,1V91.81a1,1,0,0,0,1,1h7.52a1,1,0,0,0,1-1V57.58A1,1,0,0,0,51.25,56.54Z"/><path class="cls-2" d="M83.12,56.54H75.6a1,1,0,0,0-1,1V91.81a1,1,0,0,0,1,1h7.52a1,1,0,0,0,1-1V57.58A1,1,0,0,0,83.12,56.54Z"/><path class="cls-2" d="M66.88,64.12H59.36a1,1,0,0,0-1,1V91.81a1,1,0,0,0,1,1h7.52a1,1,0,0,0,1.05-1V65.16A1,1,0,0,0,66.88,64.12Z"/><path class="cls-2" d="M33.54,55.46a4,4,0,0,0,4-4,4,4,0,0,0-.17-1.1l8.42-6.06a4,4,0,0,0,4.66-.93L58.4,48a4.39,4.39,0,0,0-.07.72,4,4,0,0,0,8,.24L77,45.79a4,4,0,0,0,3.23,1.66,4,4,0,0,0,2.36-.78l9,6.11a4.08,4.08,0,0,0-.14,1,4,4,0,1,0,1.65-3.23l-9-6.1a4.55,4.55,0,0,0,.13-1,4,4,0,0,0-8-.23L65.56,46.35a4,4,0,0,0-5.8-.7l-8.28-4.8c0-.06,0-.11,0-.16a4,4,0,1,0-7.63,1.68l-8.06,5.8a4,4,0,1,0-2.27,7.29Z"/></svg>